<svg id="Capa_1" enable-background="new 0 0 511.988 511.988" height="512" viewBox="0 0 511.988 511.988" width="512" xmlns="http://www.w3.org/2000/svg"><g id="XMLID_230_"><g id="XMLID_502_"><path id="XMLID_772_" d="m73.131 198.323h251.03v171.412h-251.03z" fill="#c193da" transform="matrix(.707 -.707 .707 .707 -142.657 223.654)"/><path id="XMLID_771_" d="m348.002 255.88 93.389-31.13-183.466-183.466-31.13 93.389z" fill="#e2e7ef"/><path id="XMLID_770_" d="m108.943 443.362 53.648-17.883-105.395-105.395-17.883 53.649z" fill="#98eaf9"/><path id="XMLID_679_" d="m320.847 104.206c15.912-15.912 41.711-15.912 57.623 0s15.912 41.711 0 57.623z" fill="#ff7d95"/><path id="XMLID_673_" d="m200.523 403.359 94.705 94.705c5.248 5.248 13.757 5.248 19.005 0l32.206-32.206c7.413-7.413 3.861-20.082-6.326-22.56l-20.58-5.006-76.971-76.971z" fill="#cbf4fb"/></g><g id="XMLID_718_"><path id="XMLID_747_" d="m391.909 161.126c13.117-19.704 10.997-46.625-6.368-63.991-17.366-17.365-44.287-19.485-63.991-6.368l-56.554-56.554c-2.452-2.451-5.998-3.455-9.369-2.661-3.373.796-6.094 3.282-7.189 6.57l-30.382 91.148-55.264 55.264c-3.905 3.905-3.905 10.237 0 14.143 3.905 3.904 10.237 3.904 14.143 0l49.861-49.861 107.064 107.064-163.363 163.362-107.065-107.063 49.877-49.877c3.905-3.905 3.905-10.237 0-14.143-3.905-3.904-10.237-3.904-14.143 0l-56.948 56.948c-1.875 1.876-2.929 4.419-2.929 7.071s1.054 5.195 2.929 7.071l3.536 3.536-15.928 47.785c-1.198 3.593-.263 7.555 2.416 10.233l69.629 69.63c1.906 1.906 4.462 2.929 7.073 2.929 1.058 0 2.124-.168 3.161-.513l47.786-15.929 3.535 3.535c1.953 1.952 4.512 2.929 7.071 2.929s5.119-.977 7.071-2.929l22.955-22.955 87.635 87.634c4.569 4.568 10.57 6.853 16.572 6.853s12.004-2.284 16.574-6.853l32.206-32.206c6.072-6.072 8.312-14.633 5.994-22.901s-8.684-14.417-17.028-16.447l-17.855-4.343-67.917-67.918 96.702-96.701 91.148-30.382c3.288-1.097 5.774-3.816 6.57-7.189s-.21-6.918-2.661-9.369zm-247.83 259.983-32.436 10.811-60.889-60.89 10.811-32.435zm227.32-309.832c9.512 9.512 11.468 23.755 5.884 35.222l-41.107-41.106c11.468-5.584 25.711-3.629 35.223 5.884zm-58.938 334.086c1.297 1.297 2.926 2.212 4.708 2.645l20.579 5.006c1.701.414 2.296 1.69 2.499 2.413.203.724.358 2.122-.879 3.359l-32.205 32.206c-1.341 1.339-3.523 1.341-4.863 0l-87.634-87.634 27.895-27.895zm38.242-200.924-112.466-112.467 24.058-72.175 160.584 160.583z"/><path id="XMLID_751_" d="m409.249 83.427c2.559 0 5.119-.977 7.071-2.929l31.682-31.682c3.905-3.905 3.905-10.237 0-14.143-3.905-3.904-10.237-3.904-14.143 0l-31.682 31.682c-3.905 3.905-3.905 10.237 0 14.143 1.953 1.952 4.513 2.929 7.072 2.929z"/><path id="XMLID_752_" d="m472.675 123.018h-42c-5.523 0-10 4.478-10 10s4.477 10 10 10h42c5.523 0 10-4.478 10-10 0-5.523-4.477-10-10-10z"/><path id="XMLID_753_" d="m349.658 62c5.523 0 10-4.478 10-10v-42c0-5.523-4.477-10-10-10s-10 4.477-10 10v42c0 5.522 4.477 10 10 10z"/><path id="XMLID_773_" d="m138.044 233.43c2.63 0 5.21-1.07 7.07-2.93s2.93-4.44 2.93-7.07-1.07-5.21-2.93-7.08c-1.86-1.859-4.44-2.92-7.07-2.92s-5.21 1.061-7.07 2.92c-1.86 1.87-2.93 4.45-2.93 7.08s1.07 5.21 2.93 7.07c1.86 1.859 4.44 2.93 7.07 2.93z"/></g></g></svg>